<?xml version="1.0" encoding="UTF-8" standalone="no"?>
<!-- Created with Inkscape (http://www.inkscape.org/) -->

<svg
   xmlns:dc="http://purl.org/dc/elements/1.1/"
   xmlns:cc="http://creativecommons.org/ns#"
   xmlns:rdf="http://www.w3.org/1999/02/22-rdf-syntax-ns#"
   xmlns:svg="http://www.w3.org/2000/svg"
   xmlns="http://www.w3.org/2000/svg"
   xmlns:sodipodi="http://sodipodi.sourceforge.net/DTD/sodipodi-0.dtd"
   xmlns:inkscape="http://www.inkscape.org/namespaces/inkscape"
   version="1.1"
   id="svg897"
   width="925"
   height="925"
   viewBox="0 0 925 925"
   sodipodi:docname="discord.svg"
   inkscape:version="0.92.5 (2060ec1f9f, 2020-04-08)">
  <metadata
     id="metadata903">
    <rdf:RDF>
      <cc:Work
         rdf:about="">
        <dc:format>image/svg+xml</dc:format>
        <dc:type
           rdf:resource="http://purl.org/dc/dcmitype/StillImage" />
        <dc:title></dc:title>
      </cc:Work>
    </rdf:RDF>
  </metadata>
  <defs
     id="defs901" />
  <sodipodi:namedview
     pagecolor="#ffffff"
     bordercolor="#666666"
     borderopacity="1"
     objecttolerance="10"
     gridtolerance="10"
     guidetolerance="10"
     inkscape:pageopacity="0"
     inkscape:pageshadow="2"
     inkscape:window-width="1848"
     inkscape:window-height="1016"
     id="namedview899"
     showgrid="false"
     inkscape:zoom="3.6237838"
     inkscape:cx="480.00398"
     inkscape:cy="654.53761"
     inkscape:window-x="72"
     inkscape:window-y="27"
     inkscape:window-maximized="1"
     inkscape:current-layer="svg897" />
  <g
     id="g939"
     transform="matrix(0.03247726,0,0,0.03247726,378.51491,288.59449)">
    <g
       transform="translate(-223.1074,388.54415)"
       id="g927">
      <path
         style="fill:#7188d8"
         d="m 1660.7112,542.60807 c -56.1606,-5.77444 -110.2434,-20.82202 -154.8687,-43.08943 -47.0345,-23.46955 -83.4251,-50.108 -124.7222,-91.29838 -52.1243,-51.98958 -84.9183,-102.63503 -108.2898,-167.23747 -19.0189,-52.57101 -27.7518,-109.93606 -26.3059,-172.800219 1.3262,-57.66146 11.5253,-108.85994 31.8517,-159.8934 39.7016,-99.678491 125.5597,-192.843981 222.6516,-241.601361 35.7003,-17.92787 54.7378,-24.92803 92.3938,-33.97347 33.7629,-8.11024 62.474,-11.52824 102.8446,-12.24342 52.3139,-0.92676 88.4172,2.92875 134.0456,14.31485 16.3248,4.0737 48.9861,14.45227 51.3625,16.32116 0.5702,0.44845 5.4951,2.70593 10.9441,5.01663 84.5737,35.86427 166.0383,108.39618 216.835,193.059 67.5588,112.599961 80.8904,266.74684 34.0324,393.50001 -22.0284,59.58796 -56.0225,113.09406 -102.0448,160.6168 -78.7044,81.27042 -174.5366,128.19458 -284.7299,139.41777 -18.1058,1.84408 -77.6623,1.77642 -96,-0.10907 z"
         id="path921"
         inkscape:connector-curvature="0" />
      <path
         style="fill:#ffffff;fill-opacity:1;stroke:#000000;stroke-width:0;stroke-miterlimit:4;stroke-dasharray:none;stroke-opacity:1"
         d="m 1826.9544,263.57073 c -8.1312,-10.16026 -14.4506,-18.6977 -14.0432,-18.97209 0.4074,-0.27438 7.6947,-3.16632 16.1941,-6.42652 18.5184,-7.10329 40.2975,-20.96875 54.639,-34.78538 12.3594,-11.90707 14.1191,-17.91204 3.3115,-11.30026 -28.2916,17.30799 -71.7512,33.77562 -109.2691,41.40406 -26.3099,5.34953 -31.1242,5.65727 -73.4129,4.69249 -49.3298,-1.12541 -61.2034,-3.01766 -102.5173,-16.33788 -26.656,-8.59434 -50.2455,-18.78722 -64.9198,-28.05152 -11.3187,-7.14584 -13.9198,-6.18825 -6.74,2.48127 10.9046,13.16706 28.2616,25.70409 50.8683,36.74244 l 23.499,11.47401 -14.4247,18.14334 c -14.3332,18.02816 -14.4894,18.14315 -24.6029,18.11432 -16.924,-0.0481 -49.1658,-7.81141 -67.3659,-16.22039 -21.8571,-10.09859 -41.6917,-24.25701 -56.1617,-40.08948 l -11.382,-12.45368 v -16.94483 c 0,-55.85839 18.6124,-144.779029 43.512,-207.878359 16.2822,-41.26155 23.5543,-54.14971 35.4378,-62.80533 13.8146,-10.0623 41.7327,-23.804929 62.5572,-30.793641 22.3953,-7.5159 56.9538,-13.47726 60.0691,-10.36196 3.075,3.07505 3.5984,2.79265 -20.5498,11.08767 -34.7043,11.921061 -101.2728,47.709551 -93.538,50.287811 1.275,0.425 9.1829,-2.32373 17.5731,-6.10828 47.0073,-21.2036 87.4892,-30.97151 145.5554,-35.121209 64.5532,-4.613302 132.9414,7.659139 190.2625,34.143129 9.309,4.30102 17.9819,7.45693 19.2731,7.01314 6.6314,-2.27926 -58.9397,-38.02834 -89.881,-49.002761 -18.8075,-6.67073 -20.7439,-8.11531 -16.0738,-11.99118 4.0582,-3.36794 36.755,2.049 60.62,10.04302 22.5455,7.552012 58.8658,26.690941 68.7184,36.211021 13.2033,12.75778 39.0215,77.33343 52.9585,132.45824 11.5169,45.552489 19.8301,102.613049 19.8301,136.110409 v 14.22255 l -16.0513,16.05125 c -29.9177,29.91774 -68.1873,47.42704 -113.4019,51.88422 l -15.7598,1.55358 z"
         id="path923"
         inkscape:connector-curvature="0" />
    </g>
    <g
       transform="translate(1020.8764)"
       id="g931">
      <path
         style="fill:#7188d8"
         d="m 367.10381,538.83642 c -7.7458,-1.51271 -17.0478,-6.80084 -23.7904,-13.52476 -7.9248,-7.90279 -13.6271,-19.37932 -15.3352,-30.86386 -3.1194,-20.97291 6.9892,-43.60363 24.1268,-54.01414 8.8703,-5.38842 14.6928,-6.77447 26.6056,-6.33349 9.437,0.34933 10.6977,0.64917 17.7239,4.21548 31.3004,15.88727 38.434,60.0944 13.8554,85.86248 -12.1185,12.70494 -27.1183,17.79622 -43.1861,14.65829 z"
         id="path917"
         inkscape:connector-curvature="0" />
      <path
         style="fill:#7188d8"
         d="m 543.31145,538.56511 c -15.7896,-3.44973 -30.20742,-17.11916 -36.30992,-34.42516 -3.0292,-8.59053 -2.9554,-26.31488 0.1474,-35.39602 4.651,-13.61252 14.29122,-24.79381 26.60182,-30.85428 6.103,-3.00453 8.0261,-3.44345 16.5948,-3.78761 11.4482,-0.45982 18.4951,1.21635 27.1552,6.45909 11.81,7.1497 20.4532,20.60299 23.5253,36.61739 1.4626,7.62468 1.5108,9.73711 0.3763,16.5 -3.2931,19.63066 -12.8925,33.62929 -28.1948,41.11599 -10.2018,4.99123 -19.146,6.1193 -29.8961,3.7706 z"
         id="path909"
         inkscape:connector-curvature="0" />
    </g>
  </g>
</svg>
